<svg width="156" height="227" viewBox="0 0 156 227" fill="none" xmlns="http://www.w3.org/2000/svg">
<rect x="146" y="52" width="134" height="24" transform="rotate(-180 146 52)" fill="#6B6B6B" stroke="black" stroke-width="10"/>
<path d="M55 97C60.5 124 58 151 58 151H98C98 151 99.5 124 105 101C110.5 78 129 53 129 53L30 53C30 53 49.5 70 55 97Z" fill="#6B6B6B" stroke="black" stroke-width="10"/>
<rect x="122" y="158" width="85" height="11" transform="rotate(-180 122 158)" fill="black"/>
<path d="M109 212V170H50L50 212" stroke="black" stroke-width="10"/>
<path d="M77.5 203.5L106.477 171.673C107.061 171.031 106.606 170 105.737 170H52.1147C51.2703 170 50.806 170.982 51.3417 171.634L77.5 203.5Z" fill="#6B6B6B" stroke="black" stroke-width="10"/>
</svg>
