<svg width="156" height="227" viewBox="0 0 156 227" fill="none" xmlns="http://www.w3.org/2000/svg">
<rect x="145" y="44" width="134" height="24" transform="rotate(-180 145 44)" fill="#6B6B6B" stroke="black" stroke-width="10"/>
<path d="M54 89C59.5 116 57 143 57 143H97C97 143 98.5 116 104 93C109.5 70 128 45 128 45L29 45C29 45 48.5 62 54 89Z" fill="#6B6B6B" stroke="black" stroke-width="10"/>
<rect x="121" y="150" width="85" height="11" transform="rotate(-180 121 150)" fill="black"/>
<path d="M122 185.5L98.5 143.5H57.5L41.5 185.5L71.5 174L82.5 199L91 174L122 185.5Z" fill="#6B6B6B" stroke="black" stroke-width="10"/>
</svg>
