<svg width="156" height="227" viewBox="0 0 156 227" fill="none" xmlns="http://www.w3.org/2000/svg">
<rect x="145" y="41" width="134" height="24" transform="rotate(-180 145 41)" fill="#6B6B6B" stroke="black" stroke-width="10"/>
<path d="M54 86C59.5 113 57 140 57 140H97C97 140 98.5 113 104 90C109.5 67 128 42 128 42L29 42C29 42 48.5 59 54 86Z" fill="#6B6B6B" stroke="black" stroke-width="10"/>
<rect x="121" y="147" width="85" height="11" transform="rotate(-180 121 147)" fill="black"/>
<path d="M50 170C50 154.536 62.536 142 78 142C93.464 142 106 154.536 106 170C106 173.13 104.493 177.625 101.439 183.14C98.477 188.487 94.4518 194.109 90.31 199.299C86.1862 204.468 82.0468 209.085 78.9305 212.417C78.6087 212.761 78.2982 213.091 78 213.406C77.7018 213.091 77.3913 212.761 77.0695 212.417C73.9532 209.085 69.8138 204.468 65.69 199.299C61.5482 194.109 57.523 188.487 54.5612 183.14C51.507 177.625 50 173.13 50 170Z" fill="#6B6B6B" stroke="black" stroke-width="12"/>
<path d="M95.5 196.5C95.5 196.5 89.7908 190.91 86.5 187C83.3566 183.265 80 175 80 175" stroke="black" stroke-width="10"/>
</svg>
