<svg width="156" height="247" viewBox="0 0 156 247" fill="none" xmlns="http://www.w3.org/2000/svg">
<rect x="145" y="49" width="134" height="24" transform="rotate(-180 145 49)" fill="#6B6B6B" stroke="black" stroke-width="10"/>
<path d="M86 205.5V229.5H64.5L51 224.5L37 209L29.5 181.5L49 75L39 50H125.5L129.5 75L84 131L101 140.5L124 131L142.5 152.5L94 205.5H86Z" fill="#6B6B6B"/>
<path d="M95.4633 205.195H83.3291L87 229C87 229 59.0607 232.909 47.8599 221.823C36.6591 210.738 31.9922 200.576 30.1254 184.872C28.2586 169.168 47.8599 94.3415 47.8599 81.4085C47.8599 68.4756 38.5259 50 38.5259 50H123.612C124.677 50 125.657 50.5577 126.12 51.5172C128.313 56.0652 133.79 69.9779 125.332 81.4085C115.065 95.2841 83.3291 130.369 83.3291 130.369C83.3291 130.369 92.7114 138.479 100.13 139.607C110.504 141.184 125.332 130.369 125.332 130.369L144 151.616L95.4633 205.195Z" stroke="black" stroke-width="10"/>
<ellipse cx="74.5" cy="170" rx="7.5" ry="8" transform="rotate(-180 74.5 170)" fill="black"/>
</svg>
