<svg width="156" height="227" viewBox="0 0 156 227" fill="none" xmlns="http://www.w3.org/2000/svg">
<rect x="10" y="175" width="134" height="24" fill="#EBCECE" stroke="black" stroke-width="10"/>
<path d="M101 130C95.5 103 98 76 98 76H58C58 76 56.5 103 51 126C45.5 149 27 174 27 174H126C126 174 106.5 157 101 130Z" fill="#EBCECE" stroke="black" stroke-width="10"/>
<rect x="34" y="69" width="85" height="11" fill="black"/>
<path d="M47 15V57H106V15" stroke="black" stroke-width="10"/>
<path d="M78.5 23.5L49.5234 55.3268C48.9387 55.969 49.3943 57 50.2628 57H103.885C104.73 57 105.194 56.0182 104.658 55.3655L78.5 23.5Z" fill="#EBCECE" stroke="black" stroke-width="10"/>
</svg>
