<svg width="156" height="227" viewBox="0 0 156 227" fill="none" xmlns="http://www.w3.org/2000/svg">
<rect x="11" y="186" width="134" height="24" fill="#EBCECE" stroke="black" stroke-width="10"/>
<path d="M102 141C96.5 114 99 87 99 87H59C59 87 57.5 114 52 137C46.5 160 28 185 28 185H127C127 185 107.5 168 102 141Z" fill="#EBCECE" stroke="black" stroke-width="10"/>
<rect x="35" y="80" width="85" height="11" fill="black"/>
<path d="M106 57C106 72.464 93.464 85 78 85C62.536 85 50 72.464 50 57C50 53.8697 51.507 49.3748 54.5612 43.8602C57.523 38.5126 61.5482 32.8914 65.69 27.7006C69.8138 22.5323 73.9532 17.9148 77.0695 14.5829C77.3913 14.2389 77.7018 13.9089 78 13.5938C78.2982 13.9089 78.6087 14.2389 78.9305 14.5829C82.0468 17.9148 86.1862 22.5323 90.31 27.7006C94.4518 32.8914 98.477 38.5126 101.439 43.8602C104.493 49.3748 106 53.8697 106 57Z" fill="#EBCECE" stroke="black" stroke-width="12"/>
<path d="M60.5 30.5C60.5 30.5 66.2092 36.09 69.5 40C72.6434 43.7348 76 52 76 52" stroke="black" stroke-width="10"/>
</svg>
