<svg width="156" height="250" viewBox="0 0 156 250" fill="none" xmlns="http://www.w3.org/2000/svg">
<rect x="11" y="200" width="134" height="24" fill="#EBCECE" stroke="black" stroke-width="10"/>
<path d="M70 43.5V19.5H91.5L105 24.5L119 40L126.5 67.5L107 174L117 199H30.5L26.5 174L72 118L55 108.5L32 118L13.5 96.5L62 43.5H70Z" fill="#EBCECE"/>
<path d="M60.5367 43.8049H72.6709L69 20C69 20 96.9393 16.0914 108.14 27.1768C119.341 38.2621 124.008 48.4238 125.875 64.128C127.741 79.8322 108.14 154.658 108.14 167.591C108.14 180.524 117.474 199 117.474 199H32.3877C31.3225 199 30.3428 198.442 29.8801 197.483C27.6872 192.935 22.2098 179.022 30.668 167.591C40.9354 153.716 72.6709 118.631 72.6709 118.631C72.6709 118.631 63.2886 110.521 55.8697 109.393C45.4961 107.816 30.668 118.631 30.668 118.631L12 97.3841L60.5367 43.8049Z" stroke="black" stroke-width="10"/>
<ellipse cx="81.5" cy="79" rx="7.5" ry="8" fill="black"/>
</svg>
